<mxfile host="app.diagrams.net" agent="Mozilla/5.0 (Windows NT 10.0; Win64; x64) AppleWebKit/537.36 (KHTML, like Gecko) Chrome/140.0.0.0 Safari/537.36" version="28.2.5">
  <diagram name="Arquitetura E-commerce" id="rO-MZg1KNiO0UT3tHLvk">
    <mxGraphModel dx="2587" dy="2272" grid="1" gridSize="10" guides="1" tooltips="1" connect="1" arrows="1" fold="1" page="1" pageScale="1" pageWidth="827" pageHeight="1169" math="0" shadow="0">
      <root>
        <mxCell id="0" />
        <mxCell id="1" parent="0" />
        <mxCell id="z1dyIa0Ph3NrNJidizXU-66" value="" style="rounded=0;whiteSpace=wrap;html=1;" vertex="1" parent="1">
          <mxGeometry x="40" y="750" width="160" height="90" as="geometry" />
        </mxCell>
        <mxCell id="z1dyIa0Ph3NrNJidizXU-63" value="" style="rounded=0;whiteSpace=wrap;html=1;" vertex="1" parent="1">
          <mxGeometry x="120" y="550" width="170" height="96.66" as="geometry" />
        </mxCell>
        <mxCell id="z1dyIa0Ph3NrNJidizXU-60" style="edgeStyle=orthogonalEdgeStyle;rounded=0;orthogonalLoop=1;jettySize=auto;html=1;exitX=0.5;exitY=1;exitDx=0;exitDy=0;entryX=0.5;entryY=0;entryDx=0;entryDy=0;" edge="1" parent="1" source="z1dyIa0Ph3NrNJidizXU-74" target="z1dyIa0Ph3NrNJidizXU-45">
          <mxGeometry relative="1" as="geometry" />
        </mxCell>
        <mxCell id="z1dyIa0Ph3NrNJidizXU-43" value="" style="fillColor=#ffffff;strokeColor=#dddddd;shadow=1;strokeWidth=1;rounded=1;absoluteArcSize=1;arcSize=2;" vertex="1" parent="1">
          <mxGeometry x="244" y="110" width="170" height="60" as="geometry" />
        </mxCell>
        <mxCell id="z1dyIa0Ph3NrNJidizXU-44" value="&lt;br&gt;kong-gateway" style="editableCssRules=.*;html=1;fontColor=#999999;shape=image;verticalLabelPosition=middle;verticalAlign=middle;labelPosition=right;align=left;spacingLeft=20;part=1;points=[];imageAspect=0;image=data:image/svg+xml,PHN2ZyB4bWxucz0iaHR0cDovL3d3dy53My5vcmcvMjAwMC9zdmciIHhtbG5zOnY9Imh0dHBzOi8vdmVjdGEuaW8vbmFubyIgd2lkdGg9IjM2NS40NjQ5OTY3NzA0MjQ5MyIgaGVpZ2h0PSIzNzkuMjIyOTk0NDYzNTc3OTUiIHZpZXdCb3g9IjAgMCA5Ni42OTU5OTkxNDU1MDc4MSAxMDAuMzM1OTk4NTM1MTU2MjUiPiYjeGE7PHN0eWxlIHR5cGU9InRleHQvY3NzIj4mI3hhOwkuc3Qwe2ZpbGw6IzQyODVmNDt9JiN4YTsJLnN0MXtmaWxsOiNhZWNiZmE7fSYjeGE7PC9zdHlsZT4mI3hhOwk8cGF0aCBjbGFzcz0ic3QwIiBkPSJNMjkuNzk0IDEwMC4zMzZMNDYuOTIgNTAuMTY4aDQ5Ljc3NnpNMCA5OS42NzFsMTIuOTc2LTQ5LjUwMkgyOS4yMkwxNi44OTcgOTIuMDU0eiIvPiYjeGE7CTxwYXRoIGNsYXNzPSJzdDEiIGQ9Ik0yOS43OTQgMEw0Ni45MiA1MC4xNjhoNDkuNzc2ek0wIC42NjZsMTIuOTc2IDQ5LjUwMkgyOS4yMkwxNi44OTcgOC4yODN6Ii8+JiN4YTs8L3N2Zz4=;" vertex="1" parent="z1dyIa0Ph3NrNJidizXU-43">
          <mxGeometry width="30" height="30" relative="1" as="geometry">
            <mxPoint x="15" y="15" as="offset" />
          </mxGeometry>
        </mxCell>
        <mxCell id="z1dyIa0Ph3NrNJidizXU-69" style="edgeStyle=orthogonalEdgeStyle;rounded=0;orthogonalLoop=1;jettySize=auto;html=1;entryX=0.5;entryY=0;entryDx=0;entryDy=0;" edge="1" parent="1" source="z1dyIa0Ph3NrNJidizXU-45" target="z1dyIa0Ph3NrNJidizXU-63">
          <mxGeometry relative="1" as="geometry" />
        </mxCell>
        <mxCell id="z1dyIa0Ph3NrNJidizXU-45" value="" style="fillColor=#ffffff;strokeColor=#dddddd;shadow=1;strokeWidth=1;rounded=1;absoluteArcSize=1;arcSize=2;" vertex="1" parent="1">
          <mxGeometry x="120" y="352.55" width="170" height="70" as="geometry" />
        </mxCell>
        <mxCell id="z1dyIa0Ph3NrNJidizXU-46" value="&lt;font color=&quot;#000000&quot;&gt;API BFF&lt;/font&gt;&lt;br&gt;pedidos-service" style="editableCssRules=.*;html=1;fontColor=#999999;shape=image;verticalLabelPosition=middle;verticalAlign=middle;labelPosition=right;align=left;spacingLeft=20;part=1;points=[];imageAspect=0;image=data:image/svg+xml,PHN2ZyB4bWxucz0iaHR0cDovL3d3dy53My5vcmcvMjAwMC9zdmciIHhtbG5zOnY9Imh0dHBzOi8vdmVjdGEuaW8vbmFubyIgd2lkdGg9IjM2NS40NjQ5OTY3NzA0MjQ5MyIgaGVpZ2h0PSIzNzkuMjIyOTk0NDYzNTc3OTUiIHZpZXdCb3g9IjAgMCA5Ni42OTU5OTkxNDU1MDc4MSAxMDAuMzM1OTk4NTM1MTU2MjUiPiYjeGE7PHN0eWxlIHR5cGU9InRleHQvY3NzIj4mI3hhOwkuc3Qwe2ZpbGw6IzQyODVmNDt9JiN4YTsJLnN0MXtmaWxsOiNhZWNiZmE7fSYjeGE7PC9zdHlsZT4mI3hhOwk8cGF0aCBjbGFzcz0ic3QwIiBkPSJNMjkuNzk0IDEwMC4zMzZMNDYuOTIgNTAuMTY4aDQ5Ljc3NnpNMCA5OS42NzFsMTIuOTc2LTQ5LjUwMkgyOS4yMkwxNi44OTcgOTIuMDU0eiIvPiYjeGE7CTxwYXRoIGNsYXNzPSJzdDEiIGQ9Ik0yOS43OTQgMEw0Ni45MiA1MC4xNjhoNDkuNzc2ek0wIC42NjZsMTIuOTc2IDQ5LjUwMkgyOS4yMkwxNi44OTcgOC4yODN6Ii8+JiN4YTs8L3N2Zz4=;" vertex="1" parent="z1dyIa0Ph3NrNJidizXU-45">
          <mxGeometry width="30" height="30" relative="1" as="geometry">
            <mxPoint x="15" y="15" as="offset" />
          </mxGeometry>
        </mxCell>
        <mxCell id="z1dyIa0Ph3NrNJidizXU-51" value="" style="editableCssRules=.*;html=1;shape=image;verticalLabelPosition=bottom;labelBackgroundColor=#ffffff;verticalAlign=top;aspect=fixed;imageAspect=0;image=data:image/svg+xml,PHN2ZyB4bWxucz0iaHR0cDovL3d3dy53My5vcmcvMjAwMC9zdmciIHhtbG5zOnY9Imh0dHBzOi8vdmVjdGEuaW8vbmFubyIgd2lkdGg9IjE0LjY1OTk5OTg0NzQxMjExIiBoZWlnaHQ9IjIwIiB2aWV3Qm94PSIwIDAgMTQuNjU5OTk5ODQ3NDEyMTEgMjAiPiYjeGE7CTxzdHlsZSB0eXBlPSJ0ZXh0L2NzcyI+JiN4YTsJLnN0MHtmaWxsOiM0Mjg1ZjQ7fSYjeGE7CS5zdDF7ZmlsbDojNjY5ZGY2O30mI3hhOwkuc3Qye2ZpbGw6I2FlY2JmYTt9JiN4YTsJPC9zdHlsZT4mI3hhOwk8c3R5bGU+JiN4YTsJCS5Ee2ZpbGwtcnVsZTpldmVub2RkfSYjeGE7CTwvc3R5bGU+JiN4YTsJPHBhdGggZD0iTTcuMzMgMTUuMzV2LTMuMDFMMCA4LjQ0djMuMDF6bTAgNC42NXYtMy4wMUwwIDEzLjA5djMuMDF6IiBjbGFzcz0ic3QyIEQiLz4mI3hhOwk8cGF0aCBkPSJNMTQuNjYgOC40NGwtNy4zMyAzLjl2My4wMWw3LjMzLTMuOXptMCA0LjY1bC03LjMzIDMuOVYyMGw3LjMzLTMuOXoiIGNsYXNzPSJzdDEgRCIvPiYjeGE7CTxwYXRoIGQ9Ik03LjMzIDB2My4wMWw3LjMzIDMuOVYzLjl6IiBjbGFzcz0ic3QwIEQiLz4mI3hhOwk8cGF0aCBkPSJNMCA2LjkxbDcuMzMtMy45VjBMMCAzLjl6IiBjbGFzcz0iRCBzdDEiLz4mI3hhOwk8cGF0aCBkPSJNNy4zMyAxMC43OVY3Ljc3TDAgMy44N3YzLjAyeiIgY2xhc3M9IkQgc3QyIi8+JiN4YTsJPHBhdGggZD0iTTE0LjY2IDMuODdsLTcuMzMgMy45djMuMDJsNy4zMy0zLjl6IiBjbGFzcz0iRCBzdDEiLz4mI3hhOzwvc3ZnPg==;" vertex="1" parent="1">
          <mxGeometry x="140" y="558.33" width="50" height="66.67" as="geometry" />
        </mxCell>
        <mxCell id="z1dyIa0Ph3NrNJidizXU-55" value="" style="shape=image;imageAspect=0;aspect=fixed;verticalLabelPosition=bottom;verticalAlign=top;image=https://blog.golang.org/gopher/gopher.png;" vertex="1" parent="1">
          <mxGeometry x="70" y="367.45" width="45" height="55.1" as="geometry" />
        </mxCell>
        <mxCell id="z1dyIa0Ph3NrNJidizXU-58" value="Cloud SQL&lt;div&gt;&lt;br&gt;&lt;/div&gt;" style="text;html=1;align=center;verticalAlign=middle;whiteSpace=wrap;rounded=0;" vertex="1" parent="1">
          <mxGeometry x="205" y="569" width="60" height="30" as="geometry" />
        </mxCell>
        <mxCell id="z1dyIa0Ph3NrNJidizXU-64" value="" style="image;aspect=fixed;perimeter=ellipsePerimeter;html=1;align=center;shadow=0;dashed=0;spacingTop=3;image=img/lib/active_directory/database.svg;" vertex="1" parent="1">
          <mxGeometry x="65" y="760" width="50" height="37" as="geometry" />
        </mxCell>
        <mxCell id="z1dyIa0Ph3NrNJidizXU-65" value="pedidos" style="text;strokeColor=none;align=center;fillColor=none;html=1;verticalAlign=middle;whiteSpace=wrap;rounded=0;" vertex="1" parent="1">
          <mxGeometry x="110" y="797" width="60" height="30" as="geometry" />
        </mxCell>
        <mxCell id="z1dyIa0Ph3NrNJidizXU-68" value="e-commerce" style="text;strokeColor=none;align=center;fillColor=none;html=1;verticalAlign=middle;whiteSpace=wrap;rounded=0;" vertex="1" parent="1">
          <mxGeometry x="205" y="599" width="70" height="30" as="geometry" />
        </mxCell>
        <mxCell id="z1dyIa0Ph3NrNJidizXU-70" style="edgeStyle=orthogonalEdgeStyle;rounded=0;orthogonalLoop=1;jettySize=auto;html=1;exitX=0.25;exitY=1;exitDx=0;exitDy=0;entryX=0.456;entryY=0.056;entryDx=0;entryDy=0;entryPerimeter=0;" edge="1" parent="1" source="z1dyIa0Ph3NrNJidizXU-63" target="z1dyIa0Ph3NrNJidizXU-66">
          <mxGeometry relative="1" as="geometry" />
        </mxCell>
        <mxCell id="z1dyIa0Ph3NrNJidizXU-73" value="" style="shape=image;imageAspect=0;aspect=fixed;verticalLabelPosition=bottom;verticalAlign=top;image=data:image/svg+xml,PHN2ZyB4bWxucz0iaHR0cDovL3d3dy53My5vcmcvMjAwMC9zdmciIGhlaWdodD0iNTcuMzE5OTk5Njk0ODI0MjIiIHdpZHRoPSI2NCIgdmlld0JveD0iMCAzLjMzOTk5OTkxNDE2OTMxMTUgNjQgNTcuMzE5OTk5Njk0ODI0MjIiPjxwYXRoIGZpbGwtcnVsZT0iZXZlbm9kZCIgZmlsbD0iIzAwMzQ1OSIgZD0iTTIwLjk4NiA1MC41NTJoMTEuNjYybDYuMDU1IDcuNTQtMS4wNCAyLjU2OEgyMi41OTZsLjM3LTIuNTY4LTMuNTUyLTUuNTQ4em04LjIzOC0zMy43NjVsNi4zMy0uMDFMNjQgNTAuNDI4bC0yLjIgMTAuMjNoLTEyLjE5bC43Ni0yLjg4My0yNi41OC0zMS40NTJ6TTQwLjUxOCAzLjM0TDUzLjY4IDEzLjc1OGwtMS42ODUgMS43NSAyLjI4MiAzLjJ2My40MjJsLTYuNTYzIDUuMzg2TDM2LjY4IDE0LjM5aC02LjQyNmwyLjU4Ny00Ljc3NHptLTI3LjQ2IDMyLjg1Mmw5LjI1Ni03LjkzNUwzNC42IDQyLjg0IDMxLjEgNDguMTgySDE5Ljc4MmwtNy44MzcgMTAuMTQ0LTEuOCAyLjMzM0gwVjQ4LjIxM2w5LjQ2NS0xMi4wMnoiLz48L3N2Zz4=;" vertex="1" parent="1">
          <mxGeometry x="173" y="113" width="64" height="57" as="geometry" />
        </mxCell>
        <mxCell id="z1dyIa0Ph3NrNJidizXU-75" value="" style="edgeStyle=orthogonalEdgeStyle;rounded=0;orthogonalLoop=1;jettySize=auto;html=1;exitX=0.5;exitY=1;exitDx=0;exitDy=0;entryX=0.5;entryY=0;entryDx=0;entryDy=0;" edge="1" parent="1" source="z1dyIa0Ph3NrNJidizXU-43" target="z1dyIa0Ph3NrNJidizXU-74">
          <mxGeometry relative="1" as="geometry">
            <mxPoint x="329" y="170" as="sourcePoint" />
            <mxPoint x="205" y="353" as="targetPoint" />
          </mxGeometry>
        </mxCell>
        <mxCell id="z1dyIa0Ph3NrNJidizXU-74" value="HTTP" style="text;html=1;align=center;verticalAlign=middle;whiteSpace=wrap;rounded=0;" vertex="1" parent="1">
          <mxGeometry x="299" y="250" width="60" height="30" as="geometry" />
        </mxCell>
        <mxCell id="z1dyIa0Ph3NrNJidizXU-84" style="edgeStyle=orthogonalEdgeStyle;rounded=0;orthogonalLoop=1;jettySize=auto;html=1;exitX=0.5;exitY=1;exitDx=0;exitDy=0;" edge="1" parent="1" source="z1dyIa0Ph3NrNJidizXU-83" target="z1dyIa0Ph3NrNJidizXU-43">
          <mxGeometry relative="1" as="geometry" />
        </mxCell>
        <mxCell id="z1dyIa0Ph3NrNJidizXU-83" value="APP WEB" style="rounded=1;whiteSpace=wrap;html=1;" vertex="1" parent="1">
          <mxGeometry x="200" y="-80" width="125" height="60" as="geometry" />
        </mxCell>
      </root>
    </mxGraphModel>
  </diagram>
</mxfile>
